{
  "accessors": [
    {
      "bufferView": 1,
      "componentType": 5126,
      "count": 65532,
      "max": [
        48.48235321044922,
        20.564783096313477,
        48.525733947753906
      ],
      "min": [
        3.9176502227783203,
        0.21406841278076172,
        0.004817992448806763
      ],
      "type": "VEC3"
    },
    {
      "bufferView": 1,
      "byteOffset": 786384,
      "componentType": 5126,
      "count": 65532,
      "max": [
        0.9999892711639404,
        0.9999468922615051,
        0.9999290704727173
      ],
      "min": [
        -0.9998941421508789,
        -0.9999771118164063,
        -0.9999997615814209
      ],
      "type": "VEC3"
    },
    {
      "bufferView": 0,
      "componentType": 5125,
      "count": 317913,
      "type": "SCALAR"
    },
    {
      "bufferView": 1,
      "byteOffset": 1572768,
      "componentType": 5126,
      "count": 65532,
      "max": [
        45.847564697265625,
        20.386322021484375,
        47.5447998046875
      ],
      "min": [
        0.9221744537353516,
        0.006244659423828125,
        0.012627989053726196
      ],
      "type": "VEC3"
    },
    {
      "bufferView": 1,
      "byteOffset": 2359152,
      "componentType": 5126,
      "count": 65532,
      "max": [
        0.9999892711639404,
        0.9999948143959045,
        0.9995959997177124
      ],
      "min": [
        -0.9999479055404663,
        -0.9999873042106628,
        -0.9999995231628418
      ],
      "type": "VEC3"
    },
    {
      "bufferView": 0,
      "byteOffset": 1271652,
      "componentType": 5125,
      "count": 318756,
      "type": "SCALAR"
    },
    {
      "bufferView": 1,
      "byteOffset": 3145536,
      "componentType": 5126,
      "count": 65532,
      "max": [
        40.380470275878906,
        20.60672950744629,
        39.93816375732422
      ],
      "min": [
        0.01482391357421875,
        0.4121208190917969,
        0.026286989450454712
      ],
      "type": "VEC3"
    },
    {
      "bufferView": 1,
      "byteOffset": 3931920,
      "componentType": 5126,
      "count": 65532,
      "max": [
        0.9986674785614014,
        0.9999619722366333,
        0.9999789595603943
      ],
      "min": [
        -0.9999663829803467,
        -0.9999961256980896,
        -0.9999996423721313
      ],
      "type": "VEC3"
    },
    {
      "bufferView": 0,
      "byteOffset": 2546676,
      "componentType": 5125,
      "count": 329640,
      "type": "SCALAR"
    },
    {
      "bufferView": 1,
      "byteOffset": 4718304,
      "componentType": 5126,
      "count": 65532,
      "max": [
        48.48017120361328,
        20.613311767578125,
        48.525733947753906
      ],
      "min": [
        0.1549549102783203,
        0.011476516723632813,
        0.012627989053726196
      ],
      "type": "VEC3"
    },
    {
      "bufferView": 1,
      "byteOffset": 5504688,
      "componentType": 5126,
      "count": 65532,
      "max": [
        0.9999475479125977,
        0.9999971389770508,
        0.9999290704727173
      ],
      "min": [
        -0.9999949932098389,
        -0.9999956488609314,
        -0.9999997615814209
      ],
      "type": "VEC3"
    },
    {
      "bufferView": 0,
      "byteOffset": 3865236,
      "componentType": 5125,
      "count": 269580,
      "type": "SCALAR"
    },
    {
      "bufferView": 1,
      "byteOffset": 6291072,
      "componentType": 5126,
      "count": 65532,
      "max": [
        41.59586715698242,
        20.608394622802734,
        47.23914337158203
      ],
      "min": [
        0.0,
        0.002010345458984375,
        0.021198004484176636
      ],
      "type": "VEC3"
    },
    {
      "bufferView": 1,
      "byteOffset": 7077456,
      "componentType": 5126,
      "count": 65532,
      "max": [
        0.9999614953994751,
        0.999985933303833,
        0.9999756217002869
      ],
      "min": [
        -0.9999663829803467,
        -0.9999997019767761,
        -0.9999968409538269
      ],
      "type": "VEC3"
    },
    {
      "bufferView": 0,
      "byteOffset": 4943556,
      "componentType": 5125,
      "count": 256350,
      "type": "SCALAR"
    },
    {
      "bufferView": 1,
      "byteOffset": 7863840,
      "componentType": 5126,
      "count": 65532,
      "max": [
        48.494056701660156,
        20.601547241210938,
        48.529541015625
      ],
      "min": [
        0.23568153381347656,
        0.0020751953125,
        0.0417650043964386
      ],
      "type": "VEC3"
    },
    {
      "bufferView": 1,
      "byteOffset": 8650224,
      "componentType": 5126,
      "count": 65532,
      "max": [
        0.9999953508377075,
        0.9999821186065674,
        0.9999409317970276
      ],
      "min": [
        -0.9999986886978149,
        -1.0,
        -0.9999945163726807
      ],
      "type": "VEC3"
    },
    {
      "bufferView": 0,
      "byteOffset": 5968956,
      "componentType": 5125,
      "count": 318171,
      "type": "SCALAR"
    },
    {
      "bufferView": 1,
      "byteOffset": 9436608,
      "componentType": 5126,
      "count": 65532,
      "max": [
        48.494056701660156,
        20.614036560058594,
        23.302003860473633
      ],
      "min": [
        9.585939407348633,
        0.9473028182983398,
        0.0
      ],
      "type": "VEC3"
    },
    {
      "bufferView": 1,
      "byteOffset": 10222992,
      "componentType": 5126,
      "count": 65532,
      "max": [
        0.999921441078186,
        0.9999984502792358,
        0.9998767375946045
      ],
      "min": [
        -0.9999986886978149,
        -0.9999966025352478,
        -0.9999997615814209
      ],
      "type": "VEC3"
    },
    {
      "bufferView": 0,
      "byteOffset": 7241640,
      "componentType": 5125,
      "count": 330390,
      "type": "SCALAR"
    },
    {
      "bufferView": 1,
      "byteOffset": 11009376,
      "componentType": 5126,
      "count": 65532,
      "max": [
        48.28864288330078,
        20.611103057861328,
        37.83397674560547
      ],
      "min": [
        0.8263645172119141,
        0.0,
        0.0
      ],
      "type": "VEC3"
    },
    {
      "bufferView": 1,
      "byteOffset": 11795760,
      "componentType": 5126,
      "count": 65532,
      "max": [
        0.9999862313270569,
        0.9999948143959045,
        0.9999780058860779
      ],
      "min": [
        -0.9999895095825195,
        -0.999997079372406,
        -0.9999997615814209
      ],
      "type": "VEC3"
    },
    {
      "bufferView": 0,
      "byteOffset": 8563200,
      "componentType": 5125,
      "count": 289854,
      "type": "SCALAR"
    },
    {
      "bufferView": 1,
      "byteOffset": 12582144,
      "componentType": 5126,
      "count": 65532,
      "max": [
        40.29536437988281,
        20.455734252929688,
        48.528526306152344
      ],
      "min": [
        1.0179119110107422,
        0.4932212829589844,
        14.595376968383789
      ],
      "type": "VEC3"
    },
    {
      "bufferView": 1,
      "byteOffset": 13368528,
      "componentType": 5126,
      "count": 65532,
      "max": [
        0.9999495148658752,
        0.9999610185623169,
        0.9999949932098389
      ],
      "min": [
        -0.9971069693565369,
        -0.9999986290931702,
        -0.9990600943565369
      ],
      "type": "VEC3"
    },
    {
      "bufferView": 0,
      "byteOffset": 9722616,
      "componentType": 5125,
      "count": 333315,
      "type": "SCALAR"
    },
    {
      "bufferView": 1,
      "byteOffset": 14154912,
      "componentType": 5126,
      "count": 56471,
      "max": [
        44.72538757324219,
        20.452594757080078,
        48.52571105957031
      ],
      "min": [
        0.00405120849609375,
        0.7216320037841797,
        14.02495002746582
      ],
      "type": "VEC3"
    },
    {
      "bufferView": 1,
      "byteOffset": 14832564,
      "componentType": 5126,
      "count": 56471,
      "max": [
        0.9999259114265442,
        0.9998626708984375,
        0.9996628761291504
      ],
      "min": [
        -0.999634325504303,
        -0.9999967813491821,
        -0.9801875948905945
      ],
      "type": "VEC3"
    },
    {
      "bufferView": 0,
      "byteOffset": 11055876,
      "componentType": 5125,
      "count": 236031,
      "type": "SCALAR"
    }
  ],
  "asset": {
    "extras": {
      "author": "nedo (https://sketchfab.com/nedo)",
      "license": "CC-BY-4.0 (http://creativecommons.org/licenses/by/4.0/)",
      "source": "https://sketchfab.com/3d-models/rabbit-hase-337cdae8dced40c78319254ac9852919",
      "title": "Rabbit / Hase"
    },
    "generator": "Sketchfab-12.68.0",
    "version": "2.0"
  },
  "bufferViews": [
    {
      "buffer": 0,
      "byteLength": 12000000,
      "name": "floatBufferViews",
      "target": 34963
    },
    {
      "buffer": 0,
      "byteLength": 15510216,
      "byteOffset": 12000000,
      "byteStride": 12,
      "name": "floatBufferViews",
      "target": 34962
    }
  ],
  "buffers": [
    {
      "byteLength": 27510216,
      "uri": "scene.bin"
    }
  ],
  "materials": [
    {
      "doubleSided": true,
      "name": "model_Material",
      "pbrMetallicRoughness": {
        "metallicFactor": 0.0,
        "roughnessFactor": 0.0
      }
    }
  ],
  "meshes": [
    {
      "name": "Object_0",
      "primitives": [
        {
          "attributes": {
            "NORMAL": 1,
            "POSITION": 0
          },
          "indices": 2,
          "material": 0,
          "mode": 4
        }
      ]
    },
    {
      "name": "Object_1",
      "primitives": [
        {
          "attributes": {
            "NORMAL": 4,
            "POSITION": 3
          },
          "indices": 5,
          "material": 0,
          "mode": 4
        }
      ]
    },
    {
      "name": "Object_2",
      "primitives": [
        {
          "attributes": {
            "NORMAL": 7,
            "POSITION": 6
          },
          "indices": 8,
          "material": 0,
          "mode": 4
        }
      ]
    },
    {
      "name": "Object_3",
      "primitives": [
        {
          "attributes": {
            "NORMAL": 10,
            "POSITION": 9
          },
          "indices": 11,
          "material": 0,
          "mode": 4
        }
      ]
    },
    {
      "name": "Object_4",
      "primitives": [
        {
          "attributes": {
            "NORMAL": 13,
            "POSITION": 12
          },
          "indices": 14,
          "material": 0,
          "mode": 4
        }
      ]
    },
    {
      "name": "Object_5",
      "primitives": [
        {
          "attributes": {
            "NORMAL": 16,
            "POSITION": 15
          },
          "indices": 17,
          "material": 0,
          "mode": 4
        }
      ]
    },
    {
      "name": "Object_6",
      "primitives": [
        {
          "attributes": {
            "NORMAL": 19,
            "POSITION": 18
          },
          "indices": 20,
          "material": 0,
          "mode": 4
        }
      ]
    },
    {
      "name": "Object_7",
      "primitives": [
        {
          "attributes": {
            "NORMAL": 22,
            "POSITION": 21
          },
          "indices": 23,
          "material": 0,
          "mode": 4
        }
      ]
    },
    {
      "name": "Object_8",
      "primitives": [
        {
          "attributes": {
            "NORMAL": 25,
            "POSITION": 24
          },
          "indices": 26,
          "material": 0,
          "mode": 4
        }
      ]
    },
    {
      "name": "Object_9",
      "primitives": [
        {
          "attributes": {
            "NORMAL": 28,
            "POSITION": 27
          },
          "indices": 29,
          "material": 0,
          "mode": 4
        }
      ]
    }
  ],
  "nodes": [
    {
      "children": [
        1
      ],
      "matrix": [
        27.918851852416992,
        0.0,
        0.0,
        0.0,
        0.0,
        6.1992304295304095e-15,
        -27.918851852416992,
        0.0,
        0.0,
        27.918851852416992,
        6.1992304295304095e-15,
        0.0,
        0.0,
        0.0,
        0.0,
        1.0
      ],
      "name": "Sketchfab_model"
    },
    {
      "children": [
        2
      ],
      "matrix": [
        1.0,
        0.0,
        0.0,
        0.0,
        0.0,
        1.0,
        0.0,
        0.0,
        0.0,
        0.0,
        1.0,
        0.0,
        -24.937660217285156,
        -10.320826530456543,
        0.4128040075302124,
        1.0
      ],
      "name": "model.obj.cleaner.materialmerger.gles"
    },
    {
      "children": [
        3,
        4,
        5,
        6,
        7,
        8,
        9,
        10,
        11,
        12
      ],
      "name": "Object_2"
    },
    {
      "mesh": 0,
      "name": "Object_3"
    },
    {
      "mesh": 1,
      "name": "Object_4"
    },
    {
      "mesh": 2,
      "name": "Object_5"
    },
    {
      "mesh": 3,
      "name": "Object_6"
    },
    {
      "mesh": 4,
      "name": "Object_7"
    },
    {
      "mesh": 5,
      "name": "Object_8"
    },
    {
      "mesh": 6,
      "name": "Object_9"
    },
    {
      "mesh": 7,
      "name": "Object_10"
    },
    {
      "mesh": 8,
      "name": "Object_11"
    },
    {
      "mesh": 9,
      "name": "Object_12"
    }
  ],
  "scene": 0,
  "scenes": [
    {
      "name": "Sketchfab_Scene",
      "nodes": [
        0
      ]
    }
  ]
}
